<svg width="100" height="31" viewBox="0 0 100 31" fill="none" xmlns="http://www.w3.org/2000/svg">
<g clip-path="url(#clip0_282_17893)">
<path fill-rule="evenodd" clip-rule="evenodd" d="M9.44268 4.59367C10.0335 3.92037 10.5719 3.34573 11.0863 2.86456C2.39236 2.58243 4.92309 8.91559 2.09009 15.3517C-1.1723 22.7641 2.47395 25.5888 7.90724 26.469C7.15412 25.5732 6.53926 24.5486 6.07124 23.4426C2.54866 18.9735 3.96645 10.8316 9.44268 4.59367Z" fill="#D9D9D9"/>
<path fill-rule="evenodd" clip-rule="evenodd" d="M30.3626 12.4895C29.5537 14.7855 28.0689 17.3618 25.9701 19.8975C24.3342 21.8733 22.5154 23.4293 20.6382 24.5561C18.4681 25.9728 15.7759 26.8088 12.766 26.8088C11.0812 26.8088 9.42463 26.7145 7.90723 26.4687C8.80376 27.534 9.89351 28.4185 11.161 29.0355C19.0211 32.8659 19.5175 25.7504 27.8336 22.1398C32.5035 20.1121 32.5206 16.1485 30.3626 12.4895Z" fill="white"/>
<path fill-rule="evenodd" clip-rule="evenodd" d="M20.6352 5.08477C21.7945 5.29767 22.8946 5.68191 23.8796 6.24271C26.5193 7.74768 28.9238 10.0506 30.3622 12.4893C31.7783 8.47031 31.1188 5.31065 28.0204 4.7386C24.6155 4.11117 21.9534 3.90953 19.3952 2.10945C16.2444 -0.107763 13.4827 0.623519 11.0859 2.86496C11.2551 2.87016 11.4277 2.87795 11.6055 2.88833C14.9306 3.08565 18.1036 3.73817 20.6352 5.08477Z" fill="#B3B3B3"/>
<path fill-rule="evenodd" clip-rule="evenodd" d="M9.4427 4.59362C3.96647 10.8316 2.54868 18.9735 6.07126 23.4425C4.48945 19.7013 4.59937 15.0349 6.82868 11.3093C9.79651 6.34869 15.7493 4.186 20.6356 5.08518C18.104 3.73771 14.931 3.08605 11.6067 2.88787C11.4281 2.87748 11.2555 2.87056 11.0863 2.8645C10.572 3.34568 10.0335 3.92032 9.4427 4.59362Z" fill="white"/>
<path fill-rule="evenodd" clip-rule="evenodd" d="M23.8791 6.24314C22.8941 5.68148 21.7941 5.2981 20.6348 5.08521C23.9684 6.85846 26.1866 9.83811 26.1617 14.5841C26.1393 18.7018 24.0285 22.3409 20.6373 24.5563C22.5146 23.4296 24.3343 21.8735 25.9693 19.8978C28.0689 17.3621 29.5529 14.7857 30.3618 12.4898C28.9234 10.051 26.5189 7.74725 23.8791 6.24314Z" fill="#B3B3B3"/>
<path fill-rule="evenodd" clip-rule="evenodd" d="M20.087 22.2998C16.3231 24.7369 11.3046 23.6499 8.87688 19.8715C6.4492 16.093 7.64973 11.2276 11.2951 8.61576C15.3716 5.69583 20.5996 6.84771 22.5052 11.0441C24.3635 15.1359 23.85 19.8628 20.087 22.2998ZM20.6357 5.08484C15.7494 4.18653 9.7966 6.34836 6.82877 11.309C4.59946 15.0346 4.48868 19.7018 6.07135 23.4422C6.53937 24.5482 7.15338 25.5737 7.90736 26.4694C9.42476 26.7152 11.0813 26.8087 12.7653 26.8087C15.7761 26.8087 18.4682 25.9727 20.6374 24.556C24.0295 22.3414 26.1403 18.7014 26.1618 14.5837C26.1875 9.83774 23.9685 6.85809 20.6357 5.08484Z" fill="#D9D9D9"/>
<path fill-rule="evenodd" clip-rule="evenodd" d="M82.871 11.4715C82.0217 11.4715 81.2042 11.6983 80.4416 12.1457C79.6782 12.5931 79.0745 13.2032 78.6468 13.9596C78.2183 14.7169 78.001 15.5745 78.001 16.5092C78.001 17.9077 78.4682 19.0544 79.4283 20.0167C80.3892 20.9782 81.5159 21.4464 82.871 21.4464C83.7658 21.4464 84.6048 21.2249 85.3657 20.7878C86.1248 20.3525 86.7242 19.7484 87.1493 18.9929C87.5752 18.2348 87.7908 17.3798 87.7908 16.4503C87.7908 15.5278 87.5752 14.6831 87.1501 13.9397C86.7251 13.1972 86.1179 12.594 85.3442 12.1466C84.5705 11.6983 83.7383 11.4715 82.871 11.4715ZM82.9165 23.2361C81.029 23.2361 79.412 22.5749 78.111 21.2707C76.81 19.9665 76.1504 18.3655 76.1504 16.5135C76.1504 15.2811 76.4501 14.1232 77.0427 13.07C77.6352 12.0159 78.4545 11.179 79.4789 10.581C80.5026 9.98388 81.6258 9.68184 82.8169 9.68184C84.7431 9.68184 86.3798 10.3396 87.6808 11.6386C88.9818 12.9376 89.6422 14.5576 89.6422 16.4546C89.6422 18.3343 88.9836 19.9518 87.686 21.2621C86.3876 22.5723 84.7834 23.2361 82.9165 23.2361ZM95.9803 23.2363C95.1825 23.2363 94.4474 23.0182 93.7965 22.5881C93.1533 22.1631 92.5582 21.4518 92.0266 20.473C91.9511 20.3345 91.9974 20.1606 92.1323 20.0783L93.1739 19.4492C93.3165 19.3626 93.5019 19.4137 93.581 19.5617C94.2559 20.8122 95.0237 21.4466 95.8635 21.4466C96.2242 21.4466 96.5677 21.36 96.8837 21.1913C97.1989 21.0225 97.4307 20.8053 97.593 20.5266C97.7562 20.2454 97.836 19.9563 97.836 19.643C97.836 19.2891 97.7175 18.9464 97.4728 18.5967C97.1087 18.0758 96.4243 17.4319 95.4376 16.6816C94.383 15.8793 93.739 15.3073 93.4702 14.9325C93.003 14.3051 92.7643 13.6102 92.7643 12.8711C92.7643 12.2843 92.9068 11.74 93.1876 11.2545C93.4685 10.7673 93.8695 10.3787 94.3787 10.0992C94.8837 9.82222 95.4393 9.68115 96.0301 9.68115C96.6561 9.68115 97.2495 9.83952 97.794 10.1519C98.3384 10.4644 98.8897 11.0113 99.4805 11.8248C99.575 11.9546 99.5484 12.1364 99.4213 12.2333L98.4226 12.9975C98.2929 13.0961 98.1091 13.0701 98.0112 12.9403C97.5759 12.3579 97.2074 11.9745 96.9163 11.7988C96.6355 11.6292 96.3375 11.547 96.0052 11.547C95.5853 11.547 95.2555 11.6682 94.9962 11.9183C94.7403 12.1649 94.6157 12.46 94.6157 12.8209C94.6157 13.0468 94.6638 13.2692 94.7574 13.4812C94.8528 13.6993 95.0374 13.946 95.3045 14.2151C95.4049 14.3129 95.7587 14.6045 96.8536 15.4206C97.9528 16.2376 98.6897 16.9516 99.107 17.6032C99.5304 18.2653 99.745 18.9429 99.745 19.6179C99.745 20.5924 99.3749 21.4483 98.645 22.1623C97.9168 22.8754 97.0211 23.2363 95.9803 23.2363ZM73.2626 22.9257H71.7615C71.6799 22.9257 71.6069 22.8755 71.576 22.7993L69.673 18.1953C69.6258 18.0767 69.46 18.0767 69.4128 18.1953L67.5038 22.7993C67.4729 22.8755 67.399 22.9257 67.3174 22.9257H65.8155C65.6695 22.9257 65.5725 22.7734 65.6343 22.6392L68.372 16.5129C68.4467 16.3519 68.4467 16.165 68.3728 16.004L65.9057 10.4333C65.8112 10.2273 65.9615 9.99193 66.1873 9.99193H67.4506C67.5725 9.99193 67.6824 10.0664 67.7271 10.1806L69.4128 14.2922C69.4617 14.4186 69.6395 14.4186 69.6893 14.2922L71.3862 10.178C71.4309 10.0655 71.5382 9.99193 71.6584 9.99193H72.9354C73.1501 9.99193 73.2918 10.2161 73.2016 10.4117L70.7198 15.9954C70.6451 16.1581 70.6451 16.345 70.7198 16.5077L73.4446 22.6401C73.5056 22.7734 73.4085 22.9257 73.2626 22.9257ZM40.9717 10.3425C40.9717 10.1495 41.1271 9.99201 41.3195 9.99201H45.7386C47.9129 9.99201 49.6751 11.7687 49.6751 13.96V14.0673C49.6751 16.2845 47.8915 18.082 45.6914 18.082H43.0018C42.8738 18.082 42.7699 18.1867 42.7699 18.3156V22.5753C42.7699 22.7691 42.6145 22.9258 42.4221 22.9258H41.3195C41.1271 22.9258 40.9717 22.7691 40.9717 22.5753V10.3425ZM42.7699 16.0361C42.7699 16.1651 42.8738 16.2698 43.0018 16.2698H45.9292C47.0052 16.2698 47.8777 15.3905 47.8777 14.307V13.8033C47.8777 12.6991 46.9889 11.8042 45.8932 11.8042H43.0018C42.8738 11.8042 42.7699 11.9089 42.7699 12.0379V16.0361ZM61.432 22.9254C61.3084 22.9254 61.195 22.8536 61.1426 22.7402L60.174 20.6684C60.1207 20.5559 60.0074 20.4832 59.8828 20.4832H53.8381C53.7145 20.4832 53.6011 20.555 53.5479 20.6684L52.574 22.7411C52.5208 22.8536 52.4083 22.9254 52.2838 22.9254H50.9811C50.7458 22.9254 50.5903 22.6788 50.6908 22.4641L56.4513 10.1769C56.5045 10.0644 56.617 9.99167 56.7415 9.99167H57.0052C57.1306 9.99167 57.2439 10.0644 57.2963 10.1786L62.9821 22.4659C63.0817 22.6796 62.9262 22.9254 62.6909 22.9254H61.432ZM54.5827 18.4659C54.5251 18.587 54.6136 18.7272 54.7467 18.7272H58.9588C59.1014 18.7272 59.1958 18.5775 59.1349 18.4477L57.0533 13.9968C56.9794 13.8385 56.7561 13.8385 56.6823 13.996L54.5827 18.4659Z" fill="white"/>
</g>
<defs>
<clipPath id="clip0_282_17893">
<rect width="98.9959" height="30.2898" fill="white" transform="translate(0.847656 0.353271)"/>
</clipPath>
</defs>
</svg>
