<svg width="81" height="27" viewBox="0 0 81 27" fill="none" xmlns="http://www.w3.org/2000/svg">
<path d="M16.2075 0.919306L14.8224 8.77388H10.0148C5.52944 8.77388 1.25422 12.4077 0.461651 16.893L0.125947 18.8016C-0.662178 23.287 2.33025 26.9208 6.81445 26.9208H10.824C14.0932 26.9208 17.2068 24.2741 17.7815 21.0059L21.4743 0.0722656L16.2075 0.919306ZM12.796 20.2645C12.6192 21.2738 11.7099 22.0964 10.7006 22.0964H8.26509C6.24865 22.0964 4.90028 20.4602 5.25377 18.4404L5.46386 17.2498C5.82179 15.2334 7.74487 13.5938 9.76131 13.5938H13.9732L12.796 20.2645ZM53.2327 26.9197L56.3874 9.02288H61.3774L58.2227 26.9197H53.2294H53.2327ZM53.7718 9.22964C53.5217 10.6492 53.2705 12.0687 53.0204 13.4882C50.656 12.7534 48.2172 12.988 47.468 13.1369C46.6587 17.7323 45.8484 22.3288 45.038 26.9241H40.0447C40.7228 23.0791 43.0393 9.94773 43.0393 9.94773C44.6634 9.27522 48.6518 7.91017 53.7718 9.22964ZM33.5396 8.77055H29.6556C25.8706 8.77055 22.2624 11.8363 21.5954 15.6213L20.8106 20.07C20.1437 23.855 22.6681 26.9208 26.4531 26.9208H34.7157L35.5638 22.1109H27.7982C26.5376 22.1109 25.6939 21.0904 25.9184 19.8254L25.944 19.6742H38.4629L39.1776 15.6202C39.8446 11.8352 37.3201 8.76944 33.5351 8.76944H33.5396V8.77055ZM34.1699 15.2378L34.141 15.4957H26.6966L26.7366 15.2667C26.9611 14.0062 28.1116 12.8968 29.3755 12.8968H32.2835C33.5329 12.8979 34.3766 13.9884 34.1699 15.2378ZM75.8538 9.02288H80.8471C79.1464 13.546 75.248 21.2383 71.4719 26.9197H66.4786C64.7456 21.5128 63.6262 13.9806 63.4128 9.02288H68.405C68.495 10.6403 69.2187 16.6374 70.0446 20.827C72.31 16.7507 74.8078 11.4028 75.8494 9.02288H75.8538Z" fill="white"/>
</svg>
