<svg width="100" height="23" viewBox="0 0 100 23" fill="none" xmlns="http://www.w3.org/2000/svg">
<g clip-path="url(#clip0_282_17895)">
<path d="M11.2846 6.85482C10.8872 8.77911 9.3394 10.1596 6.39023 10.1596C3.00182 10.1596 1.30762 7.98429 1.30762 5.3907C1.30762 2.90168 3.00182 0.621826 6.51573 0.621826C9.63223 0.621826 11.0754 2.23237 11.2846 3.88474H8.31451C8.18901 3.40367 7.83344 2.62977 6.49481 2.62977C5.11435 2.62977 4.44503 3.69649 4.44503 5.30703C4.44503 6.77116 4.98885 8.10979 6.53664 8.10979C7.6452 8.10979 8.10535 7.62872 8.35634 6.81299H11.3055V6.85482H11.2846Z" fill="white"/>
<path d="M22.7467 5.3907C22.7467 7.98429 21.0525 10.1596 17.434 10.1596C14.1293 10.1596 12.3096 8.06796 12.3096 5.3907C12.3096 2.90168 14.1084 0.621826 17.5804 0.621826C20.8852 0.663658 22.7467 2.7971 22.7467 5.3907ZM15.4888 5.34887C15.4888 6.9594 16.1163 8.10979 17.6223 8.10979C19.191 8.10979 19.6302 6.77116 19.6302 5.3907C19.6302 3.82199 19.0446 2.62977 17.5386 2.62977C16.0536 2.6716 15.4888 3.88474 15.4888 5.34887Z" fill="white"/>
<path d="M32.9119 6.89656C32.9119 5.43243 32.9538 3.6964 32.9956 2.60876H32.9538C32.5145 4.38663 31.9289 6.70831 30.9877 9.97123H28.5823C27.8712 6.98022 27.2855 4.44938 26.8044 2.60876H26.7626C26.8044 3.67548 26.9509 5.41152 26.9509 7.02206V9.97123H24.3154V0.851807H28.5405C29.1261 2.90158 29.6909 5.13961 29.9628 6.6874C30.3184 5.07686 30.904 2.94342 31.5315 0.851807H35.7565V9.99214H32.8492V6.89656H32.9119Z" fill="white"/>
<path d="M37.9951 0.851807H43.1196C45.2948 0.851807 46.8635 1.91853 46.8635 3.84281C46.8635 5.76709 45.4412 6.87564 43.1614 6.87564H40.9861V9.99214H38.0369V0.851807H37.9951ZM40.9443 4.90953H42.6803C43.4751 4.90953 43.9353 4.59579 43.9353 3.88464C43.9353 3.29899 43.5797 2.90158 42.6803 2.90158H40.9443V4.90953Z" fill="white"/>
<path d="M48.1602 0.851807H51.1512V7.8587H56.0455L55.69 9.95031H48.202V0.851807H48.1602Z" fill="white"/>
<path d="M58.0114 9.99214V6.8129C58.0114 6.6874 57.9696 6.58282 57.8859 6.45732L54.2256 0.851807H57.6977C58.4506 2.1486 59.2036 3.52907 59.6638 4.51212C60.103 3.5709 60.9187 2.23227 61.6717 0.851807H64.8719L61.1279 6.5619C61.0861 6.64557 61.0861 6.6874 61.0861 6.87564V9.99214H58.0114Z" fill="white"/>
<path d="M4.19441 20.492L3.60876 22.1862H0.638672L4.06891 13.0459H7.95931L11.6196 22.1862H8.44038L7.81289 20.492H4.19441ZM7.18541 18.3586C6.59976 16.7062 6.24419 15.6813 6.03503 14.9283H5.99319C5.80495 15.6813 5.40754 16.9781 4.92647 18.3586H7.18541Z" fill="white"/>
<path d="M12.624 13.0669H17.2674C20.5721 13.0669 22.2245 15.0748 22.2245 17.4802C22.2245 20.2829 20.1747 22.2072 17.2256 22.2072H12.624V13.0669ZM15.615 20.1365H16.9118C18.376 20.1365 19.0871 19.2371 19.0871 17.5429C19.0871 16.1625 18.5014 15.1376 16.9118 15.0958H15.615V20.1365Z" fill="white"/>
<path d="M26.0938 22.1862L22.5381 13.0459H25.7383L27.0769 17.1455C27.558 18.6514 27.788 19.4671 27.9135 20.0946H27.9554C28.0809 19.509 28.1854 19.1116 28.8966 17.02L30.1515 13.0459H33.3099L29.7123 22.1862H26.0938Z" fill="white"/>
<path d="M35.8618 20.492L35.2762 22.1862H32.2852L35.7154 13.0459H39.5849L43.2452 22.1862H40.0869L39.4594 20.492H35.8618ZM38.7901 18.3586C38.2044 16.7062 37.8488 15.6813 37.6397 14.9283H37.5978C37.4096 15.6813 37.0122 16.9781 36.5311 18.3586H38.7901Z" fill="white"/>
<path d="M44.2695 22.1863V13.0669H47.6998C49.7077 16.3298 50.4189 17.522 51.0045 18.6933H51.0463C50.9627 17.8567 50.9627 16.2043 50.9627 14.6774V13.0669H53.6399V22.2072H50.377C49.6659 20.9104 47.4279 17.041 46.8631 15.9324H46.8213C46.905 16.9573 46.905 18.2123 46.905 19.9901V22.2281H44.2695V22.1863Z" fill="white"/>
<path d="M57.9694 15.1585H54.9365V13.0669H63.8886V15.1585H60.8976V22.1654H57.9484V15.1585H57.9694Z" fill="white"/>
<path d="M66.5659 20.492L65.9803 22.1862H62.9893L66.4195 13.0459H70.289L73.9493 22.1862H70.791L70.1635 20.492H66.5659ZM69.5151 18.3586C68.9294 16.7062 68.5739 15.6813 68.3647 14.9283H68.3229C68.1346 15.6813 67.7372 16.9781 67.2561 18.3586H69.5151Z" fill="white"/>
<path d="M84.2607 22.1864H82.211C82.1691 21.9982 82.0855 21.6426 82.0227 21.3498C81.4371 22.0191 80.6841 22.3747 78.9899 22.3747C75.9571 22.3747 74.3047 20.3667 74.3047 17.6894C74.3047 15.0959 75.9571 12.8369 79.5546 12.8369C82.462 12.8369 83.9679 14.301 84.2398 15.8279H81.2907C81.1652 15.3887 80.7468 14.7612 79.5546 14.7612C77.9859 14.7612 77.463 16.058 77.463 17.5221C77.463 19.1327 78.0905 20.3667 79.6383 20.3667C80.9351 20.3667 81.4162 19.6137 81.4162 18.9444V18.8608H79.6383V16.8528H84.3026V22.2073H84.2607V22.1864Z" fill="white"/>
<path d="M93.9873 18.5469H89.1138V20.0529H94.552L94.1964 22.1445H86.1855V13.0669H94.2592V15.1585H89.1138V16.4553H93.9663L93.9873 18.5469Z" fill="white"/>
<path d="M94.7818 8.77907C94.9073 8.46533 95.0956 8.19342 95.3257 7.98426C95.5557 7.7751 95.8067 7.58685 96.1205 7.44044C96.4342 7.31495 96.748 7.2522 97.1035 7.2522C97.4591 7.2522 97.7728 7.29403 98.0866 7.44044C98.4003 7.56594 98.6722 7.75418 98.8814 7.98426C99.1115 8.21434 99.2788 8.46533 99.4252 8.77907C99.5507 9.09281 99.6553 9.40656 99.6553 9.76213C99.6553 10.1177 99.5716 10.4733 99.4252 10.7452C99.2997 11.0589 99.1115 11.3308 98.8814 11.54C98.6513 11.7701 98.4003 11.9374 98.0866 12.0838C97.7728 12.2093 97.4591 12.2721 97.1035 12.2721C96.748 12.2721 96.4342 12.2302 96.1205 12.0838C95.8067 11.9583 95.5348 11.7701 95.3257 11.54C95.1165 11.3099 94.9282 11.0589 94.7818 10.7452C94.6563 10.4314 94.5518 10.1177 94.5518 9.76213C94.5518 9.44839 94.6563 9.09281 94.7818 8.77907ZM95.1792 10.6615C95.2629 10.9334 95.4512 11.1426 95.6185 11.3308C95.7858 11.5191 96.0159 11.6864 96.2878 11.7701C96.5597 11.8537 96.8316 11.9583 97.0826 11.9583C97.3963 11.9583 97.6683 11.9165 97.8774 11.7701C98.1493 11.6864 98.3585 11.4982 98.5467 11.3308C98.735 11.1635 98.8605 10.9334 98.986 10.6615C99.0696 10.3896 99.1742 10.1177 99.1742 9.82488C99.1742 9.51114 99.1324 9.23923 98.986 8.98823C98.9023 8.71632 98.7141 8.50716 98.5467 8.31892C98.3585 8.13067 98.1493 7.96334 97.8774 7.87968C97.6055 7.79602 97.3336 7.69144 97.0826 7.69144C96.7689 7.69144 96.497 7.73327 96.2878 7.87968C96.0159 7.96334 95.8067 8.15159 95.6185 8.31892C95.4302 8.50716 95.3047 8.71632 95.1792 8.98823C95.0956 9.26014 94.991 9.53205 94.991 9.82488C95.0537 10.0759 95.0956 10.3896 95.1792 10.6615ZM97.2709 8.33983C97.6264 8.33983 97.8983 8.4235 98.0238 8.56991C98.2121 8.69541 98.2957 8.92549 98.2957 9.19739C98.2957 9.4693 98.2121 9.63663 98.0657 9.78305C97.9192 9.92946 97.7519 9.97129 97.5218 10.0131L98.3585 11.3099H97.8983L97.1035 10.055H96.6225V11.3099H96.1832V8.33983C96.1623 8.33983 97.2709 8.33983 97.2709 8.33983ZM97.0617 9.61572C97.1454 9.61572 97.2499 9.61572 97.3754 9.61572C97.4591 9.61572 97.5637 9.57388 97.6055 9.57388C97.6892 9.53205 97.731 9.49022 97.7938 9.44839C97.8565 9.40656 97.8356 9.32289 97.8356 9.17648C97.8356 9.09281 97.8356 8.98823 97.7938 8.9464C97.7519 8.90457 97.7101 8.86274 97.6683 8.8209C97.6264 8.77907 97.5428 8.77907 97.4382 8.77907C97.3545 8.77907 97.3127 8.77907 97.2081 8.77907H96.5806V9.7203H97.0617V9.61572Z" fill="white"/>
</g>
<defs>
<clipPath id="clip0_282_17895">
<rect width="98.9959" height="21.7527" fill="white" transform="translate(0.638672 0.621826)"/>
</clipPath>
</defs>
</svg>
