<svg width="120" height="31" viewBox="0 0 120 31" fill="none" xmlns="http://www.w3.org/2000/svg">
<path d="M104.479 7.24947L101.943 23.1775C101.934 23.236 101.937 23.2958 101.953 23.3529C101.969 23.4099 101.998 23.4627 102.036 23.5076C102.075 23.5525 102.123 23.5885 102.177 23.6129C102.231 23.6373 102.29 23.6495 102.349 23.6489H105.349C105.455 23.6498 105.558 23.6127 105.639 23.5445C105.72 23.4762 105.773 23.3812 105.79 23.2767L108.325 7.34867C108.335 7.29018 108.332 7.23033 108.315 7.1733C108.299 7.11627 108.271 7.06344 108.232 7.01853C108.194 6.97362 108.146 6.9377 108.092 6.9133C108.038 6.8889 107.979 6.87661 107.92 6.87728H104.92C104.813 6.87518 104.71 6.91179 104.629 6.98028C104.548 7.04877 104.494 7.14445 104.479 7.24947ZM101.275 11.8976H98.4282C98.3225 11.8966 98.2199 11.9335 98.1391 12.0017C98.0582 12.0699 98.0046 12.1648 97.9878 12.2692L97.8936 12.8556C97.8936 12.8556 95.6826 10.4582 91.7681 12.0784C89.5224 13.006 88.4444 14.9225 87.9856 16.3265C87.9856 16.3265 86.5297 20.5937 89.8225 22.9424C89.8225 22.9424 92.8758 25.2014 96.3139 22.8034L96.2545 23.1775C96.2407 23.2654 96.2562 23.3553 96.2984 23.4336C96.3406 23.5119 96.4073 23.5742 96.4883 23.611C96.542 23.6362 96.6008 23.6489 96.6602 23.6489H99.5087C99.6149 23.651 99.7182 23.6144 99.7994 23.5459C99.8805 23.4774 99.934 23.3817 99.9498 23.2767L101.682 12.369C101.692 12.3106 101.689 12.2508 101.672 12.1938C101.656 12.1369 101.627 12.0843 101.588 12.0398C101.55 11.9945 101.502 11.9582 101.447 11.9336C101.393 11.9089 101.334 11.897 101.275 11.8976ZM97.0861 17.9259C96.975 18.688 96.5897 19.3833 96.0024 19.8816C95.4126 20.3816 94.6619 20.6515 93.8887 20.6417C93.5855 20.6452 93.2836 20.6013 92.994 20.5115C91.7649 20.1198 91.0635 18.9483 91.2651 17.6782C91.3771 16.9164 91.7628 16.2216 92.3501 15.7237C92.9394 15.2234 93.6895 14.9526 94.4625 14.961C94.7657 14.9579 95.0677 15.0022 95.3572 15.0925C96.5938 15.4817 97.2921 16.6551 97.0892 17.9265H97.0861V17.9259ZM81.8854 18.2273C83.4291 18.2273 84.9222 17.6788 86.095 16.6817C87.2653 15.6879 88.0402 14.3072 88.2788 12.7905C88.7774 9.63548 86.2947 6.88171 82.7751 6.88171H77.1051C76.9993 6.88069 76.8966 6.91771 76.8158 6.98601C76.735 7.05432 76.6813 7.14938 76.6647 7.25389L74.1289 23.1819C74.1152 23.2698 74.1306 23.3597 74.1728 23.438C74.215 23.5163 74.2817 23.5786 74.3627 23.6154C74.4171 23.6407 74.4752 23.6533 74.5346 23.6533H77.5367C77.6425 23.6543 77.7452 23.6173 77.826 23.549C77.9069 23.4807 77.9605 23.3856 77.9771 23.2811L78.7215 18.6039C78.7371 18.4987 78.7905 18.4029 78.8717 18.3343C78.9529 18.2657 79.0563 18.229 79.1625 18.2311L81.8854 18.2273ZM84.3965 12.6471C84.2113 13.8135 83.3027 14.6723 81.5644 14.6723H79.342L80.0169 10.4304H82.1994C83.9965 10.4336 84.5816 11.4856 84.3965 12.6502V12.6471Z" fill="#B3B3B3"/>
<path d="M70.7092 12.1686L67.2755 17.9219L65.5328 12.2109C65.5055 12.1198 65.4493 12.04 65.3727 11.9836C65.2961 11.9271 65.2033 11.8972 65.1081 11.8981H62.0093C61.9292 11.8971 61.8513 11.925 61.7901 11.9768C61.7289 12.0286 61.6885 12.1007 61.6763 12.18C61.6688 12.2325 61.6742 12.2861 61.6921 12.336L64.8149 21.9559L61.9904 26.4891C61.9664 26.5264 61.9503 26.5682 61.943 26.612C61.9358 26.6557 61.9375 26.7005 61.9482 26.7436C61.9588 26.7866 61.9781 26.8271 62.005 26.8624C62.0318 26.8978 62.0655 26.9272 62.1041 26.9491C62.1558 26.9788 62.2145 26.9941 62.2741 26.9933H65.6117C65.707 26.9937 65.8007 26.9694 65.8838 26.9229C65.967 26.8764 66.0367 26.8093 66.0863 26.7279L74.8089 12.4049C74.8405 12.355 74.8578 12.2975 74.8591 12.2384C74.8603 12.1794 74.8453 12.1212 74.8158 12.07C74.7864 12.0187 74.7437 11.9762 74.6922 11.947C74.6408 11.9178 74.5824 11.9029 74.5233 11.9038H71.1869C71.0912 11.9029 70.9969 11.9269 70.9132 11.9733C70.8294 12.0197 70.7592 12.087 70.7092 12.1686ZM60.2527 11.8981H57.4035C57.2975 11.8971 57.1947 11.9342 57.1137 12.0026C57.0328 12.0711 56.9791 12.1663 56.9624 12.271L56.8702 12.8567C56.8702 12.8567 54.6573 10.4593 50.7428 12.0795C48.4977 13.0071 47.419 14.9236 46.9622 16.3277C46.9622 16.3277 45.505 20.5948 48.7972 22.9436C48.7972 22.9436 51.8511 25.2026 55.2892 22.8045L55.2298 23.1786C55.2158 23.2665 55.2311 23.3566 55.2734 23.4349C55.3156 23.5132 55.3825 23.5755 55.4636 23.6121C55.5173 23.6374 55.5761 23.65 55.6355 23.65H58.484C58.5898 23.6508 58.6923 23.6136 58.7731 23.5454C58.8539 23.4771 58.9076 23.3822 58.9245 23.2778L60.6577 12.3702C60.6719 12.2822 60.6566 12.192 60.6143 12.1135C60.5721 12.035 60.5052 11.9727 60.4239 11.936C60.37 11.9112 60.312 11.8983 60.2527 11.8981ZM56.0633 17.9276C55.9511 18.6888 55.5657 19.3831 54.9789 19.8808C54.3895 20.3808 53.6394 20.6513 52.8665 20.6428C52.5638 20.6462 52.2623 20.6023 51.9731 20.5127C50.7447 20.1209 50.0439 18.9494 50.2455 17.6787C50.3577 16.9153 50.7449 16.2191 51.3342 15.7211C51.9258 15.2208 52.6783 14.9513 53.4529 14.9622C53.7562 14.959 54.0589 15.0032 54.3483 15.0936C55.5723 15.4828 56.2693 16.6556 56.0671 17.9276H56.0633ZM40.8632 18.2284C42.4043 18.2276 43.8949 17.6791 45.069 16.6809C46.2383 15.6872 47.0123 14.3069 47.2503 12.791C47.7495 9.63661 45.2662 6.88283 41.7478 6.88283H36.0773C35.9715 6.88177 35.8688 6.91868 35.7879 6.98685C35.7069 7.05502 35.6531 7.14994 35.6362 7.25439L33.1086 23.178C33.0945 23.266 33.1098 23.3562 33.152 23.4346C33.1943 23.5131 33.2612 23.5755 33.3424 23.6121C33.3962 23.6367 33.4549 23.65 33.5143 23.65H36.5145C36.6205 23.651 36.7233 23.6139 36.8043 23.5455C36.8852 23.4771 36.9389 23.3819 36.9556 23.2772L37.6987 18.5999C37.7145 18.4949 37.7679 18.3992 37.8491 18.3308C37.9303 18.2623 38.0336 18.2257 38.1397 18.2278L40.8632 18.2284ZM43.3743 12.6476C43.1892 13.814 42.2811 14.6728 40.5428 14.6728H38.3205L38.9941 10.4309H41.1766C42.9743 10.434 43.5588 11.4868 43.3743 12.6507V12.6476Z" fill="white"/>
<path d="M21.4665 7.7011C21.5341 4.18401 18.6331 1.48584 14.644 1.48584H6.39277C6.20049 1.48575 6.0145 1.55432 5.8683 1.67921C5.72209 1.8041 5.62529 1.97708 5.59533 2.16702L2.28929 22.8254C2.2745 22.919 2.28017 23.0147 2.30591 23.1059C2.33166 23.1971 2.37687 23.2817 2.43842 23.3537C2.49998 23.4258 2.57642 23.4837 2.66249 23.5233C2.74855 23.563 2.8422 23.5836 2.93697 23.5836H7.82526L7.06131 28.367C7.04652 28.4606 7.05219 28.5563 7.07794 28.6476C7.10368 28.7388 7.14889 28.8233 7.21044 28.8954C7.272 28.9674 7.34844 29.0253 7.43451 29.065C7.52058 29.1047 7.61422 29.1253 7.709 29.1253H11.6912C11.8833 29.1253 12.0545 29.0564 12.2011 28.9319C12.3464 28.8068 12.3704 28.6343 12.4008 28.4441L13.5698 21.5666C13.5995 21.3771 13.6961 21.1306 13.8421 21.0055C13.9881 20.8804 14.1157 20.8122 14.3084 20.8122H16.745C20.652 20.8122 23.9662 18.035 24.5722 14.1729C25.0013 11.4318 23.826 8.9377 21.4665 7.7011Z" fill="white"/>
<path d="M8.88373 15.9649L7.66608 23.6853L6.90149 28.5281C6.88679 28.6217 6.89256 28.7174 6.91838 28.8086C6.94421 28.8998 6.98949 28.9843 7.05111 29.0563C7.11272 29.1283 7.18921 29.1861 7.2753 29.2257C7.36139 29.2653 7.45504 29.2858 7.54981 29.2858H11.7645C11.9566 29.2857 12.1424 29.217 12.2883 29.0921C12.4343 28.9673 12.5309 28.7944 12.5607 28.6046L13.6715 21.566C13.7015 21.3762 13.7982 21.2032 13.9443 21.0784C14.0903 20.9535 14.2762 20.8849 14.4684 20.8848H16.9492C20.8561 20.8848 24.1704 18.035 24.777 14.1729C25.2067 11.4317 23.8266 8.93705 21.4672 7.70044C21.4608 7.99237 21.4356 8.28367 21.3907 8.57245C20.7847 12.4333 17.4692 15.2837 13.5635 15.2837H9.68054C9.48831 15.2839 9.30246 15.3527 9.1564 15.4777C9.01035 15.6027 8.91366 15.775 8.88373 15.9649Z" fill="#B3B3B3"/>
<path d="M7.6651 23.685H2.76164C2.66689 23.685 2.57326 23.6644 2.48722 23.6247C2.40118 23.5851 2.32477 23.5272 2.26326 23.4551C2.20175 23.383 2.15661 23.2984 2.13094 23.2072C2.10527 23.116 2.0997 23.0203 2.11459 22.9267L5.42063 1.96194C5.45058 1.77211 5.54729 1.59921 5.69336 1.47434C5.83943 1.34946 6.02527 1.28082 6.21744 1.28076H14.6443C18.6334 1.28076 21.5344 4.18366 21.4668 7.70012C20.4741 7.17944 19.3077 6.88182 18.03 6.88182H11.0046C10.8124 6.88173 10.6264 6.95031 10.4802 7.07519C10.334 7.20008 10.2372 7.37307 10.2072 7.563L8.88401 15.9646L7.66447 23.685H7.6651Z" fill="white"/>
</svg>
