<svg width="85" height="30" viewBox="0 0 85 30" fill="none" xmlns="http://www.w3.org/2000/svg">
<g clip-path="url(#clip0_1096_26257)">
<path d="M69.2418 29.3036C69.1818 29.3036 69.1243 29.2798 69.0819 29.2374C69.0394 29.1949 69.0156 29.1374 69.0156 29.0774V1.82585C69.0156 1.71889 69.091 1.62615 69.1956 1.60444L73.9194 0.620922C73.9523 0.61405 73.9864 0.614618 74.0191 0.622582C74.0518 0.630547 74.0823 0.645707 74.1084 0.666959C74.1345 0.688211 74.1555 0.715018 74.1699 0.745426C74.1843 0.775833 74.1918 0.809075 74.1917 0.842727V29.0774C74.1917 29.1374 74.1679 29.1949 74.1255 29.2374C74.0831 29.2798 74.0255 29.3036 73.9656 29.3036H69.2418ZM9.86676 29.8802C7.97984 29.8802 6.29499 29.4184 4.81222 28.4957C3.32944 27.5726 2.15687 26.3104 1.29412 24.7088C0.431375 23.1073 0 21.2886 0 19.2525C0 17.2168 0.431375 15.4116 1.29412 13.8372C2.15687 12.2353 3.32944 10.9869 4.81222 10.091C6.29499 9.1679 7.97984 8.70653 9.86676 8.70653C11.3768 8.70653 12.6977 8.99149 13.8296 9.56178C14.7374 10.0184 15.5066 10.6234 16.1369 11.3773C16.2798 11.5482 16.5797 11.4515 16.5797 11.2285V1.33567C16.5797 1.22871 16.6547 1.13636 16.7597 1.11465L21.4835 0.130741C21.5164 0.123883 21.5504 0.124435 21.583 0.132355C21.6156 0.140275 21.6461 0.155365 21.6722 0.17653C21.6983 0.197694 21.7193 0.224401 21.7338 0.254711C21.7482 0.28502 21.7558 0.318171 21.7558 0.351757V29.1647C21.7558 29.2246 21.732 29.2822 21.6896 29.3246C21.6472 29.367 21.5896 29.3908 21.5297 29.3908H17.3319C17.2795 29.3908 17.2287 29.3725 17.1883 29.3392C17.1478 29.3059 17.1202 29.2595 17.1101 29.2081L16.68 27.0117C16.6417 26.8172 16.3867 26.7595 16.2604 26.9119C15.6578 27.6393 14.9016 28.2893 13.9915 28.8616C12.9401 29.5404 11.5654 29.8798 9.86715 29.8798L9.86676 29.8802ZM10.9588 25.3194C12.6302 25.3194 13.9915 24.7629 15.0429 23.6499C16.1211 22.5101 16.6606 21.0577 16.6606 19.2932C16.6606 17.5286 16.1211 16.09 15.0429 14.9771C13.9915 13.8372 12.6302 13.267 10.9588 13.267C9.31422 13.267 7.953 13.8234 6.87437 14.9364C5.79573 16.0494 5.25701 17.4879 5.25701 19.2525C5.25701 21.0171 5.79613 22.4691 6.87437 23.6097C7.953 24.7491 9.31422 25.3194 10.9588 25.3194ZM34.377 29.883C32.3551 29.883 30.5625 29.4488 28.9988 28.5802C27.4351 27.7115 26.2085 26.49 25.3189 24.9156C24.4293 23.3409 23.9845 21.5223 23.9845 19.4593C23.9845 17.3692 24.4159 15.5095 25.2786 13.8811C26.1682 12.2523 27.3814 10.9897 28.9179 10.0942C30.4816 9.17106 32.3148 8.70969 34.4176 8.70969C36.3858 8.70969 38.1244 9.14383 39.634 10.0125C41.144 10.8812 42.3166 12.0758 43.1521 13.5961C44.0148 15.0887 44.4462 16.7582 44.4462 18.6045C44.4462 18.9028 44.4328 19.215 44.4059 19.5406C44.4059 19.8015 44.3973 20.0711 44.3799 20.3497C44.3762 20.4066 44.3509 20.4598 44.3093 20.4987C44.2676 20.5376 44.2127 20.5591 44.1557 20.5589H29.3623C29.3314 20.5586 29.3008 20.5649 29.2724 20.5772C29.2441 20.5895 29.2187 20.6076 29.1978 20.6304C29.1769 20.6532 29.161 20.6801 29.1511 20.7093C29.1412 20.7386 29.1376 20.7696 29.1405 20.8004C29.2849 22.2599 29.8173 23.4143 30.7377 24.264C31.7351 25.1599 32.9348 25.6079 34.3371 25.6079C35.3881 25.6079 36.2643 25.377 36.9652 24.9156C37.6512 24.4551 38.169 23.8745 38.5202 23.1728C38.5597 23.0938 38.6394 23.0425 38.7274 23.0425H43.5369C43.5719 23.0422 43.6065 23.0502 43.6378 23.0659C43.6691 23.0816 43.6962 23.1044 43.717 23.1327C43.7377 23.1609 43.7514 23.1936 43.757 23.2282C43.7626 23.2627 43.76 23.2981 43.7492 23.3314C43.3644 24.4949 42.761 25.5661 41.9393 26.5441C41.0765 27.5757 39.9979 28.3899 38.7041 28.9871C37.4372 29.5846 35.9947 29.883 34.377 29.883ZM34.4176 12.9445C33.1507 12.9445 32.0318 13.3108 31.0613 14.0437C30.1504 14.7059 29.5482 15.7033 29.2549 17.0353C29.2481 17.0676 29.2486 17.101 29.2564 17.1331C29.2641 17.1651 29.2791 17.1951 29.3 17.2206C29.3209 17.2461 29.3473 17.2666 29.3772 17.2806C29.4071 17.2946 29.4398 17.3016 29.4728 17.3013H38.9488C39.0791 17.3013 39.1833 17.1912 39.1699 17.0617C39.0475 15.8434 38.5692 14.8646 37.7333 14.1254C36.8437 13.338 35.7386 12.9445 34.4176 12.9445ZM56.8945 29.8834C54.8726 29.8834 53.08 29.4492 51.5163 28.5806C49.9526 27.7119 48.726 26.4904 47.8364 24.916C46.9468 23.3417 46.502 21.5227 46.502 19.4597C46.502 17.3695 46.9334 15.5099 47.7958 13.8815C48.6857 12.2526 49.8986 10.9901 51.4354 10.0946C52.9991 9.17146 54.8319 8.71009 56.9348 8.71009C58.903 8.71009 60.6419 9.14422 62.1515 10.0129C63.6611 10.8816 64.8337 12.0762 65.6696 13.5965C66.5323 15.0891 66.9637 16.7586 66.9637 18.6049C66.9637 18.9032 66.9503 19.2154 66.9231 19.541C66.9231 19.8019 66.9144 20.0719 66.8974 20.3501C66.8936 20.4069 66.8683 20.4602 66.8267 20.499C66.7851 20.5379 66.7302 20.5594 66.6732 20.5593H51.8798C51.8489 20.559 51.8183 20.5653 51.7899 20.5776C51.7616 20.5899 51.7361 20.608 51.7152 20.6308C51.6942 20.6535 51.6783 20.6804 51.6684 20.7097C51.6585 20.739 51.6548 20.77 51.6576 20.8008C51.8021 22.2603 52.3349 23.4147 53.2552 24.2644C54.2526 25.1603 55.4524 25.6083 56.8538 25.6083C57.9052 25.6083 58.7814 25.3774 59.4827 24.916C60.1683 24.4555 60.6865 23.8749 61.0374 23.1732C61.0768 23.0942 61.1565 23.0429 61.2449 23.0429H66.054C66.2056 23.0429 66.3141 23.1882 66.2663 23.3318C65.8819 24.4953 65.2785 25.5665 64.4564 26.5445C63.5936 27.5761 62.5154 28.3907 61.2213 28.9875C59.9544 29.585 58.5119 29.8834 56.8945 29.8834ZM56.9348 12.9449C55.6679 12.9449 54.549 13.3112 53.5785 14.0441C52.668 14.7067 52.0657 15.7036 51.7721 17.0357C51.7652 17.0679 51.7657 17.1014 51.7735 17.1335C51.7813 17.1655 51.7962 17.1954 51.8171 17.221C51.838 17.2465 51.8644 17.267 51.8943 17.281C51.9242 17.295 51.9569 17.302 51.9899 17.3017H61.4664C61.5966 17.3017 61.7004 17.1916 61.6874 17.0621C61.5654 15.8438 61.0863 14.865 60.2508 14.1258C59.3612 13.3384 58.2561 12.9449 56.9348 12.9449Z" fill="white"/>
<path d="M80.9748 29.3093C82.8996 29.3093 84.4597 27.7381 84.4597 25.8003C84.4597 23.8624 82.8996 22.2913 80.9748 22.2913C79.0504 22.2913 77.4902 23.862 77.4902 25.7999C77.4902 27.7377 79.0504 29.3089 80.9748 29.3089V29.3093Z" fill="white"/>
</g>
<defs>
<clipPath id="clip0_1096_26257">
<rect width="84.4595" height="30" fill="white"/>
</clipPath>
</defs>
</svg>
